<svg
  width="60"
  height="74"
  viewBox="0 0 60 74"
  fill="none"
  xmlns="http://www.w3.org/2000/svg"
>
  <path
    d="M7.4 73H52.68C54.92 73 56.04 73 56.896 72.564C57.649 72.181 58.261 71.569 58.644 70.816C59.08 69.96 59.08 68.84 59.08 66.6V7.4C59.08 5.16 59.08 4.04 58.644 3.184C58.261 2.431 57.649 1.819 56.896 1.436C56.04 1 54.92 1 52.68 1H7.4C5.16 1 4.04 1 3.184 1.436C2.431 1.819 1.819 2.431 1.436 3.184C1 4.04 1 5.16 1 7.4V66.6C1 68.84 1 69.96 1.436 70.816C1.819 71.569 2.431 72.181 3.184 72.564C4.04 73 5.16 73 7.4 73Z"
    fill="#F3F4F6"
    stroke="#E5E7EB"
    stroke-width="1"
  ></path>
  <rect
    x="6.90149"
    y="7.4"
    width="14.0386"
    height="3.367"
    rx="0.728"
    fill="#1D4ED8"
  ></rect>
  <rect
    x="6.90149"
    y="13.2612"
    width="8.89945"
    height="1.49644"
    rx="0.485333"
    fill="#2563EB"
  ></rect>
  <rect
    x="6.90149"
    y="15.5054"
    width="11.0303"
    height="1.49644"
    rx="0.485333"
    fill="#2563EB"
  ></rect>
  <rect
    x="6.90149"
    y="17.7495"
    width="7.26997"
    height="1.49644"
    rx="0.485333"
    fill="#2563EB"
  ></rect>
  <rect
    x="6.90143"
    y="60.6387"
    width="24.4421"
    height="1.49644"
    rx="0.485333"
    fill="#D1D5DB"
  ></rect>
  <rect
    x="6.90143"
    y="62.7588"
    width="22.6873"
    height="1.49644"
    rx="0.485333"
    fill="#D1D5DB"
  ></rect>
  <rect
    x="6.90143"
    y="65.0034"
    width="24.4421"
    height="1.49644"
    rx="0.485333"
    fill="#D1D5DB"
  ></rect>
  <line
    x1="6.90149"
    y1="22.8655"
    x2="52.0255"
    y2="22.8655"
    stroke="#E5E7EB"
    stroke-width="0.5"
  ></line>
  <line
    x1="6.90149"
    y1="37.7063"
    x2="52.0255"
    y2="37.7063"
    stroke="#E5E7EB"
    stroke-width="0.5"
  ></line>
</svg>
